# xmcd CD database file
#
# Track frame offsets:
#	150
#	21272
#	44447
#
# Disc length: 757 seconds
#
# Revision: 0
# Processed by: cddbd v1.5PL3 Copyright (c) Steve Scherf et al.
# Submitted via: CDex 1.50Beta7
#
DISCID=1f02f303
DTITLE=fayray - tears
DYEAR=2000
DGENRE=JPop
TTITLE0=tears
TTITLE1=If, I
TTITLE2=tears - piano version
EXTD=YEAR: 2000/07/26
EXTT0=
EXTT1=
EXTT2=
PLAYORDER=
